<?xml version="1.0" standalone="no"?>
<!DOCTYPE svg PUBLIC "-//W3C//DTD SVG 20010904//EN"
 "http://www.w3.org/TR/2001/REC-SVG-20010904/DTD/svg10.dtd">
<svg version="1.0" xmlns="http://www.w3.org/2000/svg"
 width="1280.000000pt" height="1280.000000pt" viewBox="0 0 1280.000000 1280.000000"
 preserveAspectRatio="xMidYMid meet">
<metadata>
Created by potrace 1.15, written by Peter Selinger 2001-2017
</metadata>
<g transform="translate(0.000000,1280.000000) scale(0.100000,-0.100000)"
fill="#000000" stroke="none">
<path d="M6125 12793 c-806 -47 -1473 -197 -2190 -493 -194 -79 -591 -276
-770 -381 -296 -172 -624 -403 -885 -621 -1220 -1019 -2031 -2515 -2234 -4118
-35 -273 -41 -392 -41 -780 0 -388 6 -507 41 -780 203 -1603 1014 -3099 2234
-4118 261 -218 589 -449 885 -621 179 -105 576 -302 770 -381 1028 -424 2099
-579 3160 -459 1654 187 3199 1022 4236 2289 759 928 1255 2077 1408 3264 41
312 46 406 46 806 0 400 -5 494 -46 806 -153 1187 -649 2336 -1408 3264 -1037
1267 -2583 2103 -4236 2289 -310 35 -715 49 -970 34z m760 -1217 c655 -70
1225 -234 1810 -521 734 -361 1348 -865 1828 -1500 581 -769 937 -1672 1044
-2645 14 -127 18 -245 18 -510 0 -265 -4 -383 -18 -510 -136 -1238 -681 -2370
-1548 -3215 -392 -382 -818 -681 -1324 -930 -599 -294 -1173 -457 -1865 -527
-189 -19 -705 -16 -915 6 -1069 111 -2060 527 -2875 1207 -147 122 -451 422
-572 564 -648 760 -1081 1712 -1217 2675 -42 296 -46 360 -46 730 0 370 4 434
46 730 136 963 569 1915 1217 2675 203 238 545 556 807 750 783 581 1751 949
2695 1025 74 6 155 12 180 14 99 8 604 -4 735 -18z"/>
<path d="M4000 7400 l0 -600 2400 0 2400 0 0 600 0 600 -2400 0 -2400 0 0
-600z"/>
<path d="M4000 5200 l0 -600 2400 0 2400 0 0 600 0 600 -2400 0 -2400 0 0
-600z"/>
</g>
</svg>
